<?xml version="1.0" standalone="no"?>
<!DOCTYPE svg PUBLIC "-//W3C//DTD SVG 20010904//EN"
 "http://www.w3.org/TR/2001/REC-SVG-20010904/DTD/svg10.dtd">
<svg version="1.0" xmlns="http://www.w3.org/2000/svg"
 width="846.000000pt" height="815.000000pt" viewBox="0 0 846.000000 815.000000"
 preserveAspectRatio="xMidYMid meet">

<g transform="translate(0.000000,815.000000) scale(0.100000,-0.100000)"
fill="red" stroke="none">
<path d="M3910 8014 c-1201 -86 -2239 -662 -2927 -1624 -377 -527 -608 -1138
-690 -1820 -24 -200 -24 -630 0 -830 136 -1135 701 -2093 1623 -2748 538 -382
1237 -640 1934 -714 148 -15 592 -15 740 0 996 106 1884 557 2529 1287 549
621 874 1365 963 2205 15 148 15 592 0 740 -106 1001 -562 1893 -1298 2539
-613 538 -1357 863 -2179 951 -102 11 -596 21 -695 14z m-1460 -2228 c352 -95
426 -118 449 -140 20 -19 53 -97 131 -314 l104 -288 1558 4 c1228 4 1564 2
1588 -8 36 -15 70 -66 70 -106 0 -16 -114 -389 -252 -828 -272 -859 -266 -845
-339 -860 -17 -3 -510 -6 -1096 -6 -1132 0 -1103 -1 -1145 47 -15 16 -176 455
-732 1993 l-64 174 -98 27 c-55 15 -229 62 -389 105 -325 88 -342 96 -352 173
-10 75 42 140 114 141 17 0 221 -51 453 -114z m1483 -2745 c120 -47 223 -177
248 -315 30 -167 -67 -349 -231 -429 -60 -30 -72 -32 -165 -32 -91 0 -106 3
-166 31 -162 77 -247 219 -237 394 10 169 113 302 283 363 67 24 188 18 268
-12z m1662 -9 c84 -40 157 -113 198 -200 29 -61 32 -75 32 -167 0 -92 -3 -106
-32 -167 -41 -88 -113 -160 -201 -201 -61 -29 -75 -32 -167 -32 -94 0 -105 2
-168 33 -209 103 -293 342 -192 544 29 58 100 137 153 170 107 66 260 74 377
20z"/>
<path d="M3372 4793 c-143 -4 -143 -4 -136 -26 4 -12 21 -62 39 -112 l33 -90
1338 0 1337 0 37 118 38 117 -1272 -2 c-699 -1 -1335 -4 -1414 -5z"/>
<path d="M3441 4198 c23 -62 46 -128 52 -146 l10 -32 1154 2 1154 3 38 117
c21 64 41 128 45 142 l6 26 -1250 0 -1249 0 40 -112z"/>
<path d="M3600 3763 c1 -5 22 -66 49 -138 l47 -130 974 0 974 0 37 115 c20 63
39 125 43 138 l7 22 -1065 0 c-586 0 -1066 -3 -1066 -7z"/>
<path d="M3710 2801 c-105 -55 -109 -209 -8 -271 74 -45 181 -12 219 68 65
134 -80 273 -211 203z"/>
<path d="M5351 2798 c-78 -53 -100 -130 -59 -207 75 -139 288 -89 288 67 0 92
-55 153 -144 160 -41 3 -57 -1 -85 -20z"/>
</g>
</svg>
